<?xml version="1.0" encoding="UTF-8" standalone="no"?>
<!-- Created with Inkscape (http://www.inkscape.org/) -->

<svg
   width="320"
   height="320"
   viewBox="0 0 320 320"
   version="1.1"
   id="svg1"
   inkscape:version="1.3.2 (091e20e, 2023-11-25)"
   sodipodi:docname="timer_icon.svg"
   xmlns:inkscape="http://www.inkscape.org/namespaces/inkscape"
   xmlns:sodipodi="http://sodipodi.sourceforge.net/DTD/sodipodi-0.dtd"
   xmlns="http://www.w3.org/2000/svg"
   xmlns:svg="http://www.w3.org/2000/svg">
  <sodipodi:namedview
     id="namedview1"
     pagecolor="#ffffff"
     bordercolor="#000000"
     borderopacity="0.25"
     inkscape:showpageshadow="2"
     inkscape:pageopacity="0.0"
     inkscape:pagecheckerboard="0"
     inkscape:deskcolor="#2d2d2d"
     inkscape:document-units="px"
     showgrid="true"
     inkscape:zoom="1.9216323"
     inkscape:cx="16.912705"
     inkscape:cy="42.672055"
     inkscape:window-width="1680"
     inkscape:window-height="939"
     inkscape:window-x="0"
     inkscape:window-y="25"
     inkscape:window-maximized="0"
     inkscape:current-layer="layer1">
    <inkscape:grid
       id="grid1"
       units="px"
       originx="0"
       originy="0"
       spacingx="16"
       spacingy="16"
       empcolor="#0099e5"
       empopacity="0.30196078"
       color="#0099e5"
       opacity="0.14901961"
       empspacing="2"
       dotted="false"
       gridanglex="30"
       gridanglez="30"
       visible="true" />
  </sodipodi:namedview>
  <defs
     id="defs1" />
  <g
     inkscape:label="Layer 1"
     inkscape:groupmode="layer"
     id="layer1">
    <path
       id="timer_path"
       d="m 26.61329,-141.48828 -26.61329,12.40625 -26.19531,-12.21289 a 144,144 0 0 0 -115.03906,114.82617 l 13.23437,26.46875 -13.23437,26.46875 a 144,144 0 0 0 114.76562,114.76563 l 26.46875,-13.23438 26.46875,13.23438 a 144,144 0 0 0 114.76563,-114.76563 l -13.23438,-26.46875 13.44141,-26.88477 a 144,144 0 0 0 -114.82812,-114.60351 z m -26.61329,45.48828 a 96,96 0 0 1 96,96 96,96 0 0 1 -96,96 96,96 0 0 1 -95.999995,-96 96,96 0 0 1 95.999995,-96 z" />
  </g>
</svg>
